0
SECTION
2
HEADER
9
$INSUNITS
70
4
9
$ACADVER
1
AC1014
9
$HANDSEED
5
FFFF
0
ENDSEC
0
SECTION
2
TABLES
0
TABLE
2
VPORT
5
8
100
AcDbSymbolTable
0
ENDTAB
0
TABLE
2
LTYPE
5
5
100
AcDbSymbolTable
0
LTYPE
5
14
100
AcDbSymbolTableRecord
100
AcDbLinetypeTableRecord
2
BYBLOCK
70
0
0
LTYPE
5
15
100
AcDbSymbolTableRecord
100
AcDbLinetypeTableRecord
2
BYLAYER
70
0
0
ENDTAB
0
TABLE
2
LAYER
5
2
100
AcDbSymbolTable
70
2
0
LAYER
5
50
100
AcDbSymbolTableRecord
100
AcDbLayerTableRecord
2
0
70
0
6
CONTINUOUS
0
ENDTAB
0
TABLE
2
STYLE
5
3
100
AcDbSymbolTable
70
1
0
STYLE
5
11
100
AcDbSymbolTableRecord
100
AcDbTextStyleTableRecord
2
STANDARD
70
0
0
ENDTAB
0
TABLE
2
VIEW
5
6
100
AcDbSymbolTable
70
0
0
ENDTAB
0
TABLE
2
UCS
5
7
100
AcDbSymbolTable
70
0
0
ENDTAB
0
TABLE
2
APPID
5
9
100
AcDbSymbolTable
70
2
0
APPID
5
12
100
AcDbSymbolTableRecord
100
AcDbRegAppTableRecord
2
ACAD
70
0
0
ENDTAB
0
TABLE
2
DIMSTYLE
5
A
100
AcDbSymbolTable
70
1
0
ENDTAB
0
TABLE
2
BLOCK_RECORD
5
1
100
AcDbSymbolTable
70
1
0
BLOCK_RECORD
5
1F
100
AcDbSymbolTableRecord
100
AcDbBlockTableRecord
2
*MODEL_SPACE
0
BLOCK_RECORD
5
1B
100
AcDbSymbolTableRecord
100
AcDbBlockTableRecord
2
*PAPER_SPACE
0
ENDTAB
0
ENDSEC
0
SECTION
2
BLOCKS
0
BLOCK
5
20
100
AcDbEntity
100
AcDbBlockBegin
2
*MODEL_SPACE
0
ENDBLK
5
21
100
AcDbEntity
100
AcDbBlockEnd
0
BLOCK
5
1C
100
AcDbEntity
100
AcDbBlockBegin
2
*PAPER_SPACE
0
ENDBLK
5
1D
100
AcDbEntity
100
AcDbBlockEnd
0
ENDSEC
0
SECTION
2
ENTITIES
0
SPLINE
5
100
100
AcDbEntity
8
0
100
AcDbSpline
70
0
71
3
72
8
73
4
74
0
42
0.000000001
43
0.0000000001
44
0.0000000001
40
3.1299052073636249
40
3.1299052073636249
40
3.1299052073636249
40
3.1299052073636249
40
3.152564918029527
40
3.152564918029527
40
3.152564918029527
40
3.152564918029527
10
19.43801131103665
20
39.005984705420474
30
8.8817841970012523e-15
10
13.313234441531298
20
39.035834337779839
30
8.8817841970012523e-15
10
7.1881243312039791
20
38.996023146907547
30
0
10
1.0642533214817784
20
38.886561333074653
30
8.8817841970012523e-15
0
SPLINE
5
101
100
AcDbEntity
8
0
100
AcDbSpline
70
0
71
3
72
38
73
34
74
0
42
0.000000001
43
0.0000000001
44
0.0000000001
40
-1
40
-1
40
-1
40
-1
40
-0.91974029350060871
40
-0.91974029350060871
40
-0.91974029350060871
40
-0.79605461282859757
40
-0.79605461282859757
40
-0.79605461282859757
40
-0.68564844093637567
40
-0.68564844093637567
40
-0.68564844093637567
40
-0.61762040206025681
40
-0.61762040206025681
40
-0.61762040206025681
40
-0.5537515630771096
40
-0.5537515630771096
40
-0.5537515630771096
40
-0.49449791033705215
40
-0.49449791033705215
40
-0.49449791033705215
40
-0.41841601012543439
40
-0.41841601012543439
40
-0.41841601012543439
40
-0.31794101280603249
40
-0.31794101280603249
40
-0.31794101280603249
40
-0.19368986827314483
40
-0.19368986827314483
40
-0.19368986827314483
40
0
40
0
40
0
40
0.0012978948364480202
40
0.0012978948364480202
40
0.0012978948364480202
40
0.0012978948364480202
10
1.0642533214669847
20
38.886561333074447
30
8.8817841970012523e-15
10
0.80956438982600876
20
38.882008867423828
30
0
10
0.45902704204553557
20
38.865443233007511
30
8.8817841970012523e-15
10
0.011014288932028916
20
38.84750269527607
30
0
10
-0.67940391386822785
20
38.819855103256145
30
8.8817841970012523e-15
10
-1.6182394350095763
20
38.824430490896489
30
8.8817841970012523e-15
10
-2.579621147520466
20
38.684611596588695
30
8.8817841970012523e-15
10
-3.4377841460892644
20
38.559804352978475
30
8.8817841970012523e-15
10
-4.3299201071412057
20
38.2514442937334
30
8.8817841970012523e-15
10
-4.841063475228081
20
37.91203113115273
30
8.8817841970012523e-15
10
-5.1560103692244477
20
37.702897788121469
30
8.8817841970012523e-15
10
-5.310289754955968
20
37.519575661657633
30
8.8817841970012523e-15
10
-5.3960758537981821
20
37.377590401863912
30
8.8817841970012523e-15
10
-5.4766170339419062
20
37.244286049047581
30
8.8817841970012523e-15
10
-5.5385619240056974
20
37.078718165524613
30
8.8817841970012523e-15
10
-5.6121978333212583
20
36.92427813294853
30
8.8817841970012523e-15
10
-5.6805127842307899
20
36.780997995010829
30
8.8817841970012523e-15
10
-5.7058532673470461
20
36.740764397712383
30
8.8817841970012523e-15
10
-5.738181627510972
20
36.656437205108581
30
8.8817841970012523e-15
10
-5.7796913565868699
20
36.548160790809625
30
8.8817841970012523e-15
10
-5.8495525564709618
20
36.304935797152559
30
8.8817841970012523e-15
10
-5.9127484551550156
20
36.010772175019298
30
0
10
-5.9962059888550998
20
35.6222949016718
30
8.8817841970012523e-15
10
-6.0594332488559424
20
35.215263658784338
30
8.8817841970012523e-15
10
-6.0925486125108055
20
34.895919935633216
30
8.8817841970012523e-15
10
-6.1335003113962463
20
34.501007527974366
30
0
10
-6.1459539182046194
20
34.132709406385537
30
0
10
-6.161368786521459
20
33.681915899230134
30
0
10
-6.1853983745382246
20
32.979192915489655
30
8.8817841970012523e-15
10
-6.1983215423172702
20
32.215861525042826
30
8.8817841970012523e-15
10
-6.1797777160088776
20
31.550900103361169
30
0
10
-6.1796481118358804
20
31.546252638825095
30
8.8817841970012523e-15
10
-6.1795185076628858
20
31.541605174289046
30
0
10
-6.1793889034898752
20
31.536957709752521
30
8.8817841970012523e-15
0
LINE
5
102
100
AcDbEntity
8
0
100
AcDbLine
10
-6.1793889034898752
20
31.536957709752521
30
8.8817841970012476e-15
11
-6.206025996557166
21
-36.503035583942655
31
8.8817841970012523e-15
0
SPLINE
5
103
100
AcDbEntity
8
0
100
AcDbSpline
70
0
71
3
72
14
73
10
74
0
42
0.000000001
43
0.0000000001
44
0.0000000001
40
-2.7019492547718031
40
-2.7019492547718031
40
-2.7019492547718031
40
-2.7019492547718031
40
-2.689120322511739
40
-2.689120322511739
40
-2.689120322511739
40
-2.6704221057278823
40
-2.6704221057278823
40
-2.6704221057278823
40
-2.6486871624061039
40
-2.6486871624061039
40
-2.6486871624061039
40
-2.6486871624061039
10
-6.206025996557166
20
-36.503035583942697
30
8.8817841970012523e-15
10
-6.2056149352346157
20
-36.516086713136552
30
8.8817841970012523e-15
10
-6.2053969402586953
20
-36.528988282259029
30
0
10
-6.2053460363776614
20
-36.541334477489215
30
8.8817841970012523e-15
10
-6.2052723166188333
20
-36.55921442134283
30
8.8817841970012523e-15
10
-6.2055556076927854
20
-36.575445265911654
30
8.8817841970012523e-15
10
-6.2059054549587227
20
-36.58837926760696
30
8.8817841970012523e-15
10
-6.20631196004374
20
-36.603407932886491
30
0
10
-6.2067034049778433
20
-36.612380424593624
30
0
10
-6.206816363793247
20
-36.615521267181983
30
8.8817841970012523e-15
0
SPLINE
5
104
100
AcDbEntity
8
0
100
AcDbSpline
70
0
71
3
72
47
73
43
74
0
42
0.000000001
43
0.0000000001
44
0.0000000001
40
-2.6173513666135988
40
-2.6173513666135988
40
-2.6173513666135988
40
-2.6173513666135988
40
-2.5596071309025135
40
-2.5596071309025135
40
-2.5596071309025135
40
-2.4813937212454187
40
-2.4813937212454187
40
-2.4813937212454187
40
-2.4418805948939748
40
-2.4418805948939748
40
-2.4418805948939748
40
-2.4366159062442541
40
-2.4366159062442541
40
-2.4366159062442541
40
-2.4212964106374217
40
-2.4212964106374217
40
-2.4212964106374217
40
-2.3958498328387834
40
-2.3958498328387834
40
-2.3958498328387834
40
-2.3447283588079273
40
-2.3447283588079273
40
-2.3447283588079273
40
-2.1472998272046899
40
-2.1472998272046899
40
-2.1472998272046899
40
-1.5256000137678174
40
-1.5256000137678174
40
-1.5256000137678174
40
-1.3332178055579473
40
-1.3332178055579473
40
-1.3332178055579473
40
-1.0350154942177643
40
-1.0350154942177643
40
-1.0350154942177643
40
-0.73639018100877007
40
-0.73639018100877007
40
-0.73639018100877007
40
-0.4434526905004762
40
-0.4434526905004762
40
-0.4434526905004762
40
-0.00060460158226564929
40
-0.00060460158226564929
40
-0.00060460158226564929
40
-0.00060460158226564929
10
-6.2068163637852845
20
-36.61552126718221
30
8.8817841970012523e-15
10
-6.2068589087591652
20
-36.620878689020508
30
0
10
-6.20672052834328
20
-36.645996306684715
30
8.8817841970012523e-15
10
-6.2068965794108264
20
-36.689008475607295
30
8.8817841970012523e-15
10
-6.2071318541498481
20
-36.746489960719202
30
8.8817841970012523e-15
10
-6.2077155794734491
20
-36.776200230626714
30
8.8817841970012523e-15
10
-6.2082698021767238
20
-36.879670082425918
30
0
10
-6.2085511209201636
20
-36.93219050160095
30
8.8817841970012523e-15
10
-6.2086912915821477
20
-36.97420787834325
30
8.8817841970012523e-15
10
-6.208918248508569
20
-37.038750298638718
30
8.8817841970012523e-15
10
-6.2089484880488595
20
-37.047349873675827
30
8.8817841970012523e-15
10
-6.2089788523373226
20
-37.055945124635279
30
8.8817841970012523e-15
10
-6.2090091028807395
20
-37.06451982091361
30
8.8817841970012523e-15
10
-6.2090971276620426
20
-37.089470968209568
30
8.8817841970012523e-15
10
-6.2091857861202149
20
-37.114702150762071
30
8.8817841970012523e-15
10
-6.2092686690607231
20
-37.139685112900047
30
8.8817841970012523e-15
10
-6.209406347199069
20
-37.181184698899514
30
8.8817841970012523e-15
10
-6.209530098630748
20
-37.222586830243884
30
8.8817841970012523e-15
10
-6.2096187150298077
20
-37.263769520197016
30
8.8817841970012523e-15
10
-6.2097967447724178
20
-37.346505264030171
30
8.8817841970012523e-15
10
-6.2098194470914949
20
-37.421683280003883
30
8.8817841970012523e-15
10
-6.2097003101449246
20
-37.500021739435574
30
8.8817841970012523e-15
10
-6.209240770246689
20
-37.802192046059034
30
8.8817841970012523e-15
10
-6.2065358614089439
20
-38.111722122502101
30
8.8817841970012523e-15
10
-6.1992321604603813
20
-38.413484988267953
30
8.8817841970012523e-15
10
-6.1762161623376999
20
-39.364423916473967
30
8.8817841970012523e-15
10
-6.098572278493001
20
-40.397684582512866
30
8.8817841970012523e-15
10
-5.8911457611264328
20
-41.216228506330587
30
8.8817841970012523e-15
10
-5.8270182860070596
20
-41.469287545141768
30
8.8817841970012523e-15
10
-5.7477025116574163
20
-41.713831162487587
30
8.8817841970012523e-15
10
-5.6529990205677771
20
-41.931013336390251
30
8.8817841970012523e-15
10
-5.5054905941620849
20
-42.269292320059705
30
0
10
-5.3489866356030005
20
-42.491804102948613
30
0
10
-5.1789366094445812
20
-42.670151244744119
30
0
10
-5.0090594005257252
20
-42.848317137165992
30
0
10
-4.7999099118363171
20
-43.010588830846217
30
0
10
-4.4647584202931574
20
-43.172641156705176
30
8.8817841970012523e-15
10
-4.1358513705877638
20
-43.33167417234462
30
8.8817841970012523e-15
10
-3.656455873803182
20
-43.500979643956185
30
0
10
-2.9155368724791355
20
-43.630862173098862
30
8.8817841970012523e-15
10
-1.7955496952000463
20
-43.827195060948156
30
8.8817841970012523e-15
10
-0.44161788910403482
20
-43.859561856829153
30
0
10
1.0330914356666661
20
-43.886331820257929
30
8.8817841970012523e-15
0
LINE
5
105
100
AcDbEntity
8
0
100
AcDbLine
10
1.0330914356666663
20
-43.886331820257929
30
8.8817841970012476e-15
11
19.411760421985385
21
-44.006072944442948
31
8.8817841959672766e-15
0
SPLINE
5
106
100
AcDbEntity
8
0
100
AcDbSpline
70
0
71
3
72
23
73
19
74
0
42
0.000000001
43
0.0000000001
44
0.0000000001
40
0.00055796880954811544
40
0.00055796880954811544
40
0.00055796880954811544
40
0.00055796880954811544
40
0.45156939145202007
40
0.45156939145202007
40
0.45156939145202007
40
0.6891418513745462
40
0.6891418513745462
40
0.6891418513745462
40
0.86520101562603846
40
0.86520101562603846
40
0.86520101562603846
40
1.0455209499719276
40
1.0455209499719276
40
1.0455209499719276
40
1.2232772267026775
40
1.2232772267026775
40
1.2232772267026775
40
1.4877564484752546
40
1.4877564484752546
40
1.4877564484752546
40
1.4877564484752546
10
19.411760421985385
20
-44.006072944442934
30
8.8817841970012523e-15
10
20.913807629913581
20
-43.999101211534459
30
8.8817841970012523e-15
10
22.309487388163252
20
-43.983944199718763
30
8.8817841970012523e-15
10
23.456191501455766
20
-43.792332681825684
30
8.8817841970012523e-15
10
24.060692894068794
20
-43.691321943253818
30
8.8817841970012523e-15
10
24.587635250101183
20
-43.542857655486642
30
8.8817841970012523e-15
10
25.0005872437583
20
-43.349059959940121
30
8.8817841970012523e-15
10
25.306265912910785
20
-43.20560546021764
30
8.8817841970012523e-15
10
25.551728147119292
20
-43.04007161994911
30
8.8817841970012523e-15
10
25.761845943101228
20
-42.82885818770233
30
8.8817841970012523e-15
10
25.976868060520367
20
-42.612714860970627
30
8.8817841970012523e-15
10
26.142377648781402
20
-42.361388462820948
30
8.8817841970012523e-15
10
26.284248288515744
20
-42.046824321133734
30
8.8817841970012523e-15
10
26.424502669108826
20
-41.735843846725864
30
8.8817841970012523e-15
10
26.588399509171651
20
-41.261974562418558
30
8.8817841970012523e-15
10
26.709677060189392
20
-40.477715343833708
30
8.8817841970012523e-15
10
26.890066283888533
20
-39.311201752223361
30
8.8817841970012523e-15
10
26.88738032634042
20
-37.946241515097135
30
8.8817841970012523e-15
10
26.878329269347301
20
-36.524393297071327
30
8.8817841970012523e-15
0
LINE
5
107
100
AcDbEntity
8
0
100
AcDbLine
10
26.878329269347301
20
-36.524393297071327
30
8.8817841970012523e-15
11
26.872645213708715
21
-35.847913264189224
31
8.8817841970012523e-15
0
LINE
5
108
100
AcDbEntity
8
0
100
AcDbLine
10
26.872645213708715
20
-35.847913264189224
30
8.8817841970012523e-15
11
26.784177557578829
21
1.2826536679946132
31
8.8817844616990483e-15
0
LINE
5
109
100
AcDbEntity
8
0
100
AcDbLine
10
26.784177557578829
20
1.2826536679946132
30
8.8817844616990483e-15
11
26.902554391515018
21
31.518050892327821
31
8.8817841970012523e-15
0
SPLINE
5
110
100
AcDbEntity
8
0
100
AcDbSpline
70
0
71
3
72
38
73
34
74
0
42
0.000000001
43
0.0000000001
44
0.0000000001
40
-1
40
-1
40
-1
40
-1
40
-0.88036577588993992
40
-0.88036577588993992
40
-0.88036577588993992
40
-0.7867741064415702
40
-0.7867741064415702
40
-0.7867741064415702
40
-0.71166405185646064
40
-0.71166405185646064
40
-0.71166405185646064
40
-0.61471306673915294
40
-0.61471306673915294
40
-0.61471306673915294
40
-0.52498818938129366
40
-0.52498818938129366
40
-0.52498818938129366
40
-0.47729321863983259
40
-0.47729321863983259
40
-0.47729321863983259
40
-0.43342722152491409
40
-0.43342722152491409
40
-0.43342722152491409
40
-0.35261637832381443
40
-0.35261637832381443
40
-0.35261637832381443
40
-0.18440756544196832
40
-0.18440756544196832
40
-0.18440756544196832
40
0
40
0
40
0
40
0.00031070599641783722
40
0.00031070599641783722
40
0.00031070599641783722
40
0.00031070599641783722
10
26.902554391515004
20
31.518050892327825
30
8.8817841970012523e-15
10
26.902667281146403
20
31.927604135657109
30
8.8817841970012523e-15
10
26.902783143689373
20
32.63391309760587
30
8.8817841970012523e-15
10
26.902899088772337
20
33.033429429053385
30
8.8817841970012523e-15
10
26.902989794370672
20
33.345977119400438
30
8.8817841970012523e-15
10
26.908152980525578
20
33.456701646771499
30
0
10
26.892515549166966
20
33.805933614347467
30
8.8817841970012523e-15
10
26.879966052723102
20
34.086202491931353
30
0
10
26.850403436748906
20
34.579174793142727
30
8.8817841970012523e-15
10
26.776839665116704
20
35.142860350532914
30
8.8817841970012523e-15
10
26.681884599938243
20
35.870457612806945
30
8.8817841970012523e-15
10
26.498941606576956
20
36.625098780247441
30
8.8817841970012523e-15
10
26.212840754413925
20
37.162698023365841
30
0
10
25.948064034082034
20
37.660228049472465
30
8.8817841970012523e-15
10
25.577228188413301
20
38.011329005316028
30
8.8817841970012523e-15
10
25.302292608686461
20
38.203603551611124
30
8.8817841970012523e-15
10
25.156145354803257
20
38.305810755788137
30
8.8817841970012523e-15
10
25.081698809845875
20
38.341537982878599
30
8.8817841970012523e-15
10
25.075917376372537
20
38.344123860242149
30
8.8817841970012523e-15
10
25.070600078969484
20
38.346502142212053
30
8.8817841970012523e-15
10
25.011452153539146
20
38.368001307708951
30
8.8817841970012523e-15
10
24.896100051851384
20
38.410761265225709
30
0
10
24.683596034719706
20
38.489534539502813
30
8.8817841970012523e-15
10
24.386605679819361
20
38.596688508867274
30
8.8817841970012523e-15
10
24.119472725342924
20
38.665057085587421
30
0
10
23.563432033597131
20
38.807367160237909
30
8.8817841970012523e-15
10
23.046914609931392
20
38.862777092925221
30
8.8817841970012523e-15
10
22.3994157023619
20
38.920386615014664
30
8.8817841970012523e-15
10
21.689561711209265
20
38.983544017607187
30
8.8817841970012523e-15
10
20.74297969695429
20
39.017022410857123
30
0
10
19.444674892338643
20
39.006041067430097
30
8.8817841970012523e-15
10
19.442453698571327
20
39.006022280091798
30
0
10
19.440232504804012
20
39.0060034927535
30
8.8817841970012523e-15
10
19.438011311036426
20
39.005984705415202
30
8.8817841970012523e-15
0
ENDSEC
0
SECTION
2
OBJECTS
0
DICTIONARY
5
C
100
AcDbDictionary
3
ACAD_GROUP
350
D
3
ACAD_MLINESTYLE
350
17
0
DICTIONARY
5
D
100
AcDbDictionary
0
DICTIONARY
5
1A
330
C
100
AcDbDictionary
0
DICTIONARY
5
17
100
AcDbDictionary
0
ENDSEC
0
EOF
